<svg width="156" height="46" viewBox="0 0 156 46" fill="none" xmlns="http://www.w3.org/2000/svg">
<rect width="156" height="46" rx="8" fill="#3068B9" fill-opacity="0.95"/>
<rect x="1" y="1" width="154" height="44" rx="7" stroke="black" stroke-opacity="0.5" stroke-width="2"/>
<path d="M34.4192 25.0347C34.0506 25.2543 33.6205 25.2942 33.2929 25.1145C32.8833 24.8749 32.6375 24.3359 32.6375 23.5972V21.3413C32.6375 20.2632 32.2075 19.4846 31.4702 19.285C30.221 18.9256 29.279 20.4229 28.9309 20.9819L26.7191 24.4357V20.1834C26.6987 19.2051 26.371 18.6261 25.7566 18.4465C25.3471 18.3267 24.7327 18.3866 24.1388 19.265L19.2034 26.9712C18.5481 25.7534 18.1999 24.3958 18.1999 23.0183C18.1999 18.3666 22.0295 14.5934 26.7191 14.5934C31.4088 14.5934 35.2384 18.3666 35.2384 23.0183V23.0382V23.0582C35.2793 23.9566 34.9926 24.6753 34.4192 25.0347ZM37.1224 23.0183V22.9983V22.9783C37.1019 17.3285 32.4327 12.7167 26.7191 12.7167C20.985 12.7167 16.3159 17.3285 16.3159 23.0183C16.3159 28.6881 20.985 33.3198 26.7191 33.3198C29.3609 33.3198 31.8593 32.3416 33.7844 30.5647C34.1735 30.2054 34.1939 29.6264 33.8253 29.2471C33.4772 28.8678 32.8833 28.8478 32.4942 29.1872C32.4942 29.1872 32.4942 29.1872 32.4737 29.2072C30.9173 30.6446 28.8285 31.4631 26.6782 31.4631C24.1593 31.4631 21.9066 30.3851 20.3502 28.6681L24.7941 21.7206V24.9348C24.7941 26.4721 25.4085 26.9712 25.9205 27.1109C26.4324 27.2507 27.2106 27.1509 28.0503 25.8532L30.4873 22.0001C30.5692 21.8803 30.6306 21.7605 30.7125 21.6807V23.6372C30.7125 25.0746 31.3064 26.2325 32.3304 26.7915C33.2519 27.3106 34.4192 27.2507 35.3817 26.6717C36.5695 25.9131 37.2043 24.5954 37.1224 23.0183ZM51.6215 19.5046C51.8672 19.6443 52.0925 19.9837 52.0925 20.2832C52.0925 20.7623 51.6829 21.1616 51.2119 21.1616C51.089 21.1616 50.9866 21.1217 50.8842 21.1017C50.3313 20.7024 49.635 20.4429 48.8978 20.4429C47.1571 20.4429 45.9693 21.8204 45.9693 23.5373C45.9693 25.2543 47.1776 26.6118 48.8978 26.6118C49.7579 26.6118 50.5361 26.2724 51.1095 25.7334C51.2529 25.6336 51.4372 25.5737 51.6215 25.5737C52.0925 25.5737 52.4611 25.933 52.4611 26.3922C52.4611 26.6917 52.2768 26.9512 52.0515 27.091C51.2119 27.7897 50.0856 28.2489 48.9183 28.2489C46.256 28.2489 44.0852 26.1127 44.0852 23.4774C44.0852 20.8422 46.256 18.706 48.9183 18.706C49.9012 18.686 50.8433 18.9855 51.6215 19.5046ZM56.4954 21.501C58.3181 21.501 59.8335 22.9983 59.8335 24.855C59.8335 26.6917 58.2976 28.2689 56.4954 28.2689C54.5909 28.2689 53.014 26.7117 53.014 24.855C53.014 22.9983 54.5909 21.501 56.4954 21.501ZM56.475 26.6118C57.2736 26.6118 57.9495 25.8732 57.9495 24.8749C57.9495 23.8767 57.2736 23.2379 56.475 23.2379C55.6149 23.2379 54.8981 23.8568 54.8981 24.8749C54.8981 25.8532 55.6149 26.6118 56.475 26.6118ZM60.9803 27.2307V22.5192C60.9803 22.0001 61.3899 21.5808 61.9224 21.5808C62.4343 21.5808 62.8644 22.0001 62.8644 22.5192V27.2307C62.8644 27.7498 62.4343 28.169 61.9224 28.169C61.4104 28.169 60.9803 27.7298 60.9803 27.2307ZM60.837 19.804C60.837 19.1851 61.3285 18.706 61.9224 18.706C62.5367 18.706 63.0282 19.2051 63.0282 19.804C63.0282 20.403 62.5367 20.8821 61.9224 20.8821C61.308 20.8621 60.837 20.383 60.837 19.804ZM66.4687 24.6753V27.2307C66.4687 27.7498 66.0386 28.169 65.5266 28.169C65.0147 28.169 64.5846 27.7498 64.5846 27.2307V22.2996C64.5846 21.9003 64.9123 21.5808 65.3219 21.5808C65.7314 21.5808 66.0386 21.9202 66.0386 22.2996C66.7963 21.6008 67.4721 21.501 68.107 21.501C69.991 21.501 70.8307 22.8785 70.8307 24.4557V27.2307C70.8307 27.7498 70.4006 28.169 69.8886 28.169C69.3767 28.169 68.9466 27.7498 68.9466 27.2307V24.6753C68.9466 23.8767 68.8442 23.1979 67.6564 23.1979C66.8168 23.1979 66.4687 23.8767 66.4687 24.6753ZM76.9334 25.6535C76.7081 25.6535 76.5648 25.5537 76.4419 25.414L74.2507 23.0981V27.2307C74.2507 27.7498 73.8206 28.169 73.3086 28.169C72.7966 28.169 72.3666 27.7498 72.3666 27.2307V19.0454C72.428 18.9056 72.5714 18.8058 72.7147 18.8058C72.8786 18.8058 73.0219 18.9456 73.1243 19.0454L76.6262 22.8785C76.7286 22.9983 76.8515 23.0582 76.9334 23.0582C76.9948 23.0582 77.1382 22.9983 77.2406 22.8785L80.7425 19.0454C80.8448 18.9456 80.9677 18.8058 81.152 18.8058C81.3159 18.8058 81.4592 18.9056 81.5002 19.0454V27.2307C81.5002 27.7498 81.0906 28.169 80.5582 28.169C80.0462 28.169 79.6161 27.7498 79.6161 27.2307V23.0981L77.4249 25.414C77.261 25.5537 77.1177 25.6535 76.9334 25.6535ZM85.9851 26.6118C86.8247 26.6118 87.5415 25.8732 87.5415 24.8749C87.5415 23.8767 86.8042 23.2179 85.9851 23.2179C85.1659 23.2179 84.4901 23.8967 84.4901 24.8749C84.4901 25.8332 85.1454 26.6118 85.9851 26.6118ZM87.992 27.4503L87.951 27.2307C87.5824 27.9295 86.4151 28.2489 85.6779 28.2489C83.9167 28.2489 82.606 26.6917 82.606 24.835C82.606 22.9983 83.9372 21.481 85.7803 21.481C86.0874 21.481 87.1524 21.5609 87.9715 22.4992L88.0125 22.2796C88.0125 21.8803 88.3196 21.5609 88.7292 21.5609C89.1388 21.5609 89.4665 21.9003 89.4665 22.2796V27.4304C89.4665 27.8296 89.1388 28.1491 88.7292 28.1491C88.2992 28.169 87.992 27.8296 87.992 27.4503ZM94.6476 23.1979H94.4428C93.2551 23.2578 93.0298 23.9167 93.0298 24.6753V27.2307C93.0298 27.7498 92.5997 28.169 92.0878 28.169C91.5758 28.169 91.1457 27.7498 91.1457 27.2307V22.2996C91.1457 21.9003 91.4734 21.5808 91.883 21.5808C92.2926 21.5808 92.5997 21.9202 92.5997 22.2996C93.296 21.6607 93.8694 21.521 94.4428 21.501H94.6272C95.0777 21.501 95.4873 21.8803 95.4873 22.3595C95.5077 22.7987 95.0982 23.1979 94.6476 23.1979ZM101.918 26.7915C102 26.9313 102.061 27.071 102.061 27.2307C102.061 27.7099 101.61 28.1491 101.119 28.1491C100.791 28.1491 100.505 27.9095 100.279 27.63L98.1086 25.1744V27.2108C98.1086 27.7298 97.6785 28.1491 97.1665 28.1491C96.6546 28.1491 96.2245 27.7298 96.2245 27.2108V19.7242C96.2245 19.2051 96.6341 18.7859 97.1665 18.7859C97.699 18.7859 98.1086 19.2051 98.1086 19.7242V24.3958L100.279 22.06C100.505 21.8204 100.771 21.5609 101.098 21.5609C101.569 21.5609 102 21.9801 102 22.4593C102 22.599 101.959 22.7587 101.877 22.8785L100.156 24.7152L101.918 26.7915ZM105.604 23.2179C105.092 23.2179 104.252 23.4774 104.252 24.2561H106.976C106.955 23.4774 106.095 23.2179 105.604 23.2179ZM108.061 25.4339H104.252C104.252 26.532 105.338 26.7116 105.809 26.7116C106.157 26.7116 106.648 26.6518 107.037 26.4721C107.16 26.3922 107.345 26.3323 107.529 26.3323C107.938 26.3323 108.287 26.6717 108.287 27.091C108.287 27.3705 108.102 27.61 107.877 27.7498C107.304 28.169 106.546 28.2689 105.829 28.2689C103.925 28.2689 102.348 27.2706 102.348 24.9348C102.348 23.0981 103.31 21.501 105.563 21.501C107.385 21.501 108.758 22.6589 108.799 24.7152C108.799 25.0945 108.471 25.4339 108.061 25.4339ZM113.304 28.2489H112.792C111.358 28.2489 110.519 27.63 110.519 25.4539V23.1979H110.027C109.577 23.1979 109.188 22.7987 109.188 22.3595C109.188 21.8803 109.597 21.501 110.027 21.501H110.519V19.7641C110.519 19.245 110.928 18.8258 111.461 18.8258C111.973 18.8258 112.403 19.245 112.403 19.7641V21.501H113.181C113.632 21.501 114.021 21.8803 114.021 22.3595C114.021 22.7987 113.611 23.1979 113.181 23.1979H112.403V25.0945C112.403 26.3523 112.464 26.6118 113.038 26.6118H113.304C113.754 26.6118 114.144 26.9712 114.144 27.4304C114.144 27.8696 113.754 28.2489 113.304 28.2489ZM122.417 19.5046C122.663 19.6443 122.888 19.9837 122.888 20.2832C122.888 20.7623 122.478 21.1616 122.007 21.1616C121.885 21.1616 121.782 21.1217 121.68 21.1017C121.127 20.7024 120.431 20.4429 119.693 20.4429C117.953 20.4429 116.765 21.8204 116.765 23.5373C116.765 25.2543 117.973 26.6118 119.693 26.6118C120.553 26.6118 121.332 26.2724 121.905 25.7334C122.048 25.6336 122.233 25.5737 122.417 25.5737C122.888 25.5737 123.257 25.933 123.257 26.3922C123.257 26.6917 123.072 26.9512 122.847 27.091C122.007 27.7897 120.881 28.2489 119.714 28.2489C117.052 28.2489 114.881 26.1127 114.881 23.4774C114.881 20.8422 117.052 18.706 119.714 18.706C120.697 18.686 121.659 18.9855 122.417 19.5046ZM127.189 26.6118C128.028 26.6118 128.745 25.8732 128.745 24.8749C128.745 23.8767 128.008 23.2179 127.189 23.2179C126.349 23.2179 125.694 23.8967 125.694 24.8749C125.694 25.8332 126.369 26.6118 127.189 26.6118ZM129.196 27.4503L129.155 27.2307C128.786 27.9295 127.619 28.2489 126.881 28.2489C125.12 28.2489 123.81 26.6917 123.81 24.835C123.81 22.9983 125.141 21.481 126.984 21.481C127.291 21.481 128.356 21.5609 129.175 22.4992L129.216 22.2796C129.216 21.8803 129.523 21.5609 129.933 21.5609C130.342 21.5609 130.67 21.9003 130.67 22.2796V27.4304C130.67 27.8296 130.342 28.1491 129.933 28.1491C129.503 28.169 129.196 27.8296 129.196 27.4503ZM135.81 26.6118C136.65 26.6118 137.305 25.8332 137.305 24.8749C137.305 23.8767 136.629 23.2179 135.81 23.2179C134.971 23.2179 134.254 23.8767 134.254 24.8749C134.254 25.8732 134.971 26.6118 135.81 26.6118ZM134.254 27.7099V30.0457C134.254 30.5647 133.824 30.984 133.312 30.984C132.8 30.984 132.37 30.5647 132.37 30.0457V22.2996C132.37 21.9003 132.697 21.5808 133.107 21.5808C133.517 21.5808 133.824 21.9202 133.824 22.3794C134.52 21.6807 135.38 21.501 136.035 21.501C137.858 21.501 139.21 22.9983 139.21 24.855C139.21 26.6917 137.92 28.2689 136.138 28.2689C135.585 28.2489 134.766 28.0892 134.254 27.7099Z" fill="white"/>
</svg>
