<svg width="156" height="46" viewBox="0 0 156 46" fill="none" xmlns="http://www.w3.org/2000/svg">
<rect width="156" height="46" rx="8" fill="#3068B9" fill-opacity="0.95"/>
<rect x="1" y="1" width="154" height="44" rx="7" stroke="black" stroke-opacity="0.5" stroke-width="2"/>
<g clip-path="url(#clip0_1489_4078)">
<mask id="mask0_1489_4078" style="mask-type:luminance" maskUnits="userSpaceOnUse" x="22" y="12" width="112" height="22">
<path d="M134 12H22V34H134V12Z" fill="white"/>
</mask>
<g mask="url(#mask0_1489_4078)">
<path fill-rule="evenodd" clip-rule="evenodd" d="M34.7432 19.7425L34.3826 19.6134L24.912 16.2436L29.3591 14.6101L29.558 14.6796L29.9304 14.8136L34.7516 16.5266L38.668 17.9136L39.0337 18.0427L39.2628 18.1238L35.1005 19.6134L34.7432 19.7425ZM32.293 16.2089L31.3392 15.8199L30.1967 16.2171L31.1505 16.6077L32.293 16.2089ZM31.4504 17.3227L30.6651 17.0016L29.7282 17.3294L30.5101 17.6537L31.4504 17.3227ZM33.4726 16.9917L32.6873 16.6706L31.747 17.0016L32.5323 17.3227L33.4726 16.9917ZM30.3837 15.4061L29.5832 15.0834L28.6564 15.4111L29.4552 15.7372L30.3837 15.4061ZM28.6548 15.8812L27.0218 16.4455L28.3834 17.0016L30.0163 16.4356L28.6548 15.8812ZM26.8583 14.0606L27.7616 13.7627L28.5216 14.0672L27.6167 14.3668L26.8583 14.0606ZM25.0973 14.4876L23.8773 13.996L25.3333 13.5177L26.5533 14.0076L25.0973 14.4876ZM23.8082 14.4843L24.8732 14.9129L23.6026 15.3317L22.5376 14.903L23.8082 14.4843ZM23.0549 13.1586L23.9396 13.5144L22.8847 13.862L22 13.5061L23.0549 13.1586ZM25.3231 12.5114L25.9062 12.7464L25.2119 12.9748L24.6305 12.7415L25.3231 12.5114ZM23.1291 12L23.7104 12.2334L23.0178 12.4634L22.4348 12.2284L23.1291 12ZM87.772 30.3582C85.1512 30.3582 83.7831 28.622 83.7831 26.2767V24.9527C83.7831 22.6075 85.1512 20.8696 87.772 20.8696C90.3928 20.8696 91.7659 22.6041 91.7659 24.9494V26.2734C91.7659 28.622 90.3928 30.3582 87.772 30.3582ZM89.5584 24.9494C89.5584 23.6038 88.9413 22.7349 87.772 22.7349C86.6027 22.7349 85.9856 23.6038 85.9856 24.9494V26.2734C85.9856 27.6174 86.6038 28.4862 87.772 28.4862C88.9396 28.4862 89.5584 27.6174 89.5584 26.2734V24.9494ZM97.4533 30.3582C96.9174 30.354 96.382 30.3159 95.8506 30.2439V33.147C95.8506 33.2347 95.8153 33.3189 95.752 33.381C95.6887 33.4431 95.603 33.478 95.514 33.478H93.9785C93.8894 33.478 93.8032 33.4431 93.7405 33.381C93.6766 33.3189 93.6414 33.2347 93.6414 33.147V21.7352C93.6414 21.4902 93.7086 21.391 94.0933 21.2933C95.1898 21.0199 96.3165 20.8766 97.4482 20.8663C100.135 20.8663 101.437 22.4237 101.437 24.9808V26.2436C101.442 28.8007 100.14 30.3582 97.4533 30.3582ZM99.238 24.9808C99.238 23.6369 98.8874 22.6372 97.4533 22.6372C96.9168 22.6323 96.3809 22.6705 95.8506 22.7514V28.473C96.382 28.5422 96.9174 28.5809 97.4533 28.5889C98.8874 28.5889 99.238 27.5959 99.238 26.2436V24.9808ZM110.64 26.3595H105.196V26.4075C105.196 27.3592 105.598 28.4896 107.2 28.4896C108.419 28.4896 109.57 28.3919 110.271 28.3241H110.322C110.49 28.3241 110.621 28.4068 110.621 28.5707V29.6531C110.621 29.9146 110.572 30.0288 110.271 30.0784C109.205 30.2873 108.12 30.3806 107.034 30.3565C105.364 30.3565 102.989 29.4727 102.989 26.242V25.0304C102.989 22.4734 104.442 20.8663 106.996 20.8663C109.551 20.8663 110.977 22.5925 110.977 25.0304V25.949C110.977 26.2105 110.873 26.3595 110.64 26.3595ZM108.752 24.7524C108.752 23.4731 108.034 22.7349 107 22.7349C105.965 22.7349 105.214 23.4565 105.214 24.7524V24.817H108.752V24.7524ZM119.868 29.9328C118.77 30.2048 117.644 30.3476 116.513 30.3582C113.816 30.3582 112.524 28.8007 112.524 26.2436V24.9808C112.524 22.4237 113.825 20.8663 116.513 20.8663C117.049 20.8712 117.584 20.9099 118.115 20.9822V18.0792C118.115 17.9914 118.151 17.9072 118.214 17.8451C118.277 17.783 118.363 17.7482 118.452 17.7482H119.987C120.077 17.7482 120.162 17.783 120.226 17.8451C120.289 17.9072 120.324 17.9914 120.324 18.0792V29.4992C120.319 29.7359 120.245 29.8352 119.868 29.9328ZM118.115 22.7581C117.584 22.6902 117.048 22.6521 116.513 22.6438C115.077 22.6438 114.726 23.6369 114.726 24.9874V26.2502C114.726 27.5942 115.077 28.5955 116.513 28.5955C117.049 28.6008 117.585 28.5621 118.115 28.4797V22.7581ZM124.458 19.7524H122.839C122.748 19.7525 122.661 19.718 122.596 19.6563C122.53 19.5946 122.492 19.5104 122.488 19.4214V17.9815C122.491 17.8924 122.53 17.8079 122.595 17.7461C122.661 17.6843 122.748 17.65 122.839 17.6505H124.458C124.548 17.6505 124.633 17.6853 124.697 17.7474C124.759 17.8095 124.795 17.8937 124.795 17.9815V19.4247C124.794 19.5119 124.758 19.5953 124.695 19.6566C124.632 19.718 124.547 19.7524 124.458 19.7524ZM124.408 30.2274H122.871C122.78 30.2244 122.694 30.1867 122.631 30.1224C122.568 30.0582 122.533 29.9724 122.533 29.8831V21.3099C122.533 21.2221 122.569 21.1379 122.633 21.0758C122.696 21.0137 122.781 20.9789 122.871 20.9789H124.408C124.497 20.9789 124.582 21.0137 124.646 21.0758C124.709 21.1379 124.745 21.2221 124.745 21.3099V29.8831C124.745 29.9724 124.71 30.0582 124.647 30.1224C124.584 30.1867 124.498 30.2244 124.408 30.2274ZM133.604 30.2274H132.184C132.095 30.2274 132.009 30.1926 131.946 30.1305C131.883 30.0684 131.847 29.9842 131.847 29.8964V29.6349C131.145 30.0852 130.328 30.3345 129.488 30.3548C128.103 30.3548 126.602 29.8318 126.602 27.6174V27.5578C126.602 25.6875 127.769 24.721 130.675 24.721H131.726V23.9977C131.726 22.9319 131.243 22.6736 130.256 22.6736C129.349 22.6708 128.441 22.7144 127.537 22.8044H127.453C127.284 22.8044 127.153 22.7547 127.153 22.5263V21.4737C127.153 21.2933 127.252 21.1775 127.47 21.1295C128.388 20.9523 129.321 20.8642 130.256 20.8663C132.627 20.8663 133.929 21.8991 133.929 23.9977V29.8997C133.928 29.9849 133.894 30.0666 133.833 30.1276C133.773 30.1887 133.69 30.2244 133.604 30.2274ZM131.735 26.1626H130.683C129.167 26.1626 128.83 26.6375 128.83 27.5561V27.6207C128.83 28.425 129.197 28.6368 130.031 28.6368C130.628 28.6236 131.214 28.4661 131.735 28.1784V26.1626ZM35.4678 19.9974L35.1004 20.1281V33.6517L39.5526 31.2155V23.2463L44.4683 21.4936L44.8828 21.3446L44.9131 16.6392L35.4678 19.9974ZM39.3942 17.6621L39.7515 17.7895L39.9874 17.8739L44.571 16.2437L40.1239 14.6085L39.5526 14.8137L35.4762 16.2685L39.0336 17.5346L39.3942 17.6621ZM54.9752 30.2439C54.6011 30.3131 54.2217 30.3513 53.8412 30.3581C51.9554 30.3581 51.187 29.9494 51.187 27.753V22.6041L49.6181 22.3757C49.5306 22.3702 49.448 22.3336 49.386 22.2727C49.3239 22.2117 49.2866 22.1307 49.2811 22.0447V21.3098C49.2811 21.222 49.3166 21.1379 49.3797 21.0758C49.443 21.0137 49.5287 20.9788 49.6181 20.9788H51.187V19.6365C51.1922 19.5504 51.2294 19.4692 51.2915 19.4082C51.3536 19.3472 51.4363 19.3107 51.524 19.3055L53.0761 19.044H53.1434C53.1779 19.0401 53.2129 19.0437 53.2458 19.0544C53.2788 19.0651 53.309 19.0827 53.3343 19.106C53.3597 19.1293 53.3795 19.1578 53.3925 19.1893C53.4055 19.221 53.4114 19.2549 53.4097 19.289V20.9821H54.9129C55.0023 20.9821 55.088 21.017 55.1512 21.0791C55.2144 21.1412 55.2499 21.2253 55.2499 21.3131V22.2797C55.2499 22.3675 55.2144 22.4517 55.1512 22.5137C55.088 22.5758 55.0023 22.6107 54.9129 22.6107H53.4097V27.753C53.4097 28.5723 53.4602 28.67 54.0618 28.67H54.9466C55.164 28.67 55.2971 28.7527 55.2971 28.9166V29.9494C55.2937 30.1132 55.1977 30.2059 54.9752 30.2439ZM64.1562 26.3595H58.7148V26.4075C58.7148 27.3591 59.1138 28.4896 60.7183 28.4896C61.9367 28.4896 63.0876 28.3919 63.7887 28.3241H63.8392C64.0079 28.3241 64.139 28.4068 64.139 28.5706V29.6531C64.139 29.9146 64.0885 30.0288 63.7887 30.0784C62.7226 30.2873 61.6365 30.3806 60.5496 30.3565C58.8814 30.3565 56.5054 29.4726 56.5054 26.242V25.0304C56.5054 22.4733 57.9578 20.8663 60.5127 20.8663C63.0676 20.8663 64.4897 22.5925 64.4897 25.0304V25.949C64.4897 26.2105 64.3902 26.3595 64.1562 26.3595ZM62.2755 24.7524C62.2755 23.4731 61.5577 22.7348 60.5227 22.7348C59.4882 22.7348 58.7366 23.4564 58.7366 24.7524V24.8169H62.2755V24.7524ZM72.0006 30.1463C71.2935 30.2997 70.5706 30.3708 69.847 30.3581C67.6765 30.3581 66.0401 29.0473 66.0401 26.3744V24.85C66.0401 22.1787 67.6765 20.8663 69.847 20.8663C70.5709 20.8539 71.2938 20.9256 72.0006 21.0798C72.2836 21.146 72.3509 21.2453 72.3509 21.5051V22.571C72.3509 22.7365 72.2177 22.8176 72.0511 22.8176H72.0006C71.2867 22.7262 70.5667 22.688 69.847 22.7034C69.0614 22.7034 68.2443 23.1453 68.2443 24.855V26.3794C68.2443 28.0857 69.0614 28.5309 69.847 28.5309C70.5667 28.5454 71.2863 28.5073 72.0006 28.4167H72.0511C72.2195 28.4167 72.3509 28.4979 72.3509 28.6617V29.7275C72.3509 29.9824 72.2836 30.0801 72.0006 30.1463ZM81.5638 30.2274H80.0289C79.9376 30.2244 79.8519 30.1867 79.7892 30.1224C79.7259 30.0582 79.6912 29.9723 79.6918 29.8831V24.4892C79.6918 23.0642 79.4409 22.7034 78.3214 22.7034C77.7555 22.7034 77.0864 22.9003 76.3853 23.2595V29.8798C76.3856 29.969 76.3509 30.0549 76.2879 30.1191C76.2252 30.1834 76.1392 30.2211 76.0482 30.2241H74.5132C74.4222 30.2211 74.3363 30.1834 74.2735 30.1191C74.2105 30.0549 74.1754 29.969 74.1762 29.8798V18.0791C74.1762 17.9913 74.2116 17.9072 74.2747 17.8451C74.3381 17.783 74.4237 17.7481 74.5132 17.7481H76.0482C76.1378 17.7481 76.2234 17.783 76.2865 17.8451C76.3498 17.9072 76.3853 17.9913 76.3853 18.0791V21.4737C77.0208 21.0963 77.7215 20.8663 78.9128 20.8663C81.2166 20.8663 81.901 22.4733 81.901 24.4892V29.8831C81.9015 29.9723 81.8662 30.0582 81.8035 30.1224C81.7402 30.1867 81.6546 30.2244 81.5638 30.2274ZM34.0161 19.9974L34.3835 20.1281V33.6501L29.9313 31.2155V18.5459L34.0161 19.9974ZM29.2118 18.2909L24.5691 16.6391L24.5995 21.3445L25.014 21.4934L29.2118 22.9913V18.2909Z" fill="white"/>
</g>
</g>
<defs>
<clipPath id="clip0_1489_4078">
<rect width="112" height="22" fill="white" transform="translate(22 12)"/>
</clipPath>
</defs>
</svg>
