<svg width="109" height="22" viewBox="0 0 109 22" fill="none" xmlns="http://www.w3.org/2000/svg">
<path fill-rule="evenodd" clip-rule="evenodd" d="M10 1H12V2V21H10H9H8H7H6H5H4H3H2H1V20H2V17H3V14H4V11H5V8H6V5H7V3H8V2H10V1Z" fill="#EEEEEE"/>
<rect y="20" width="1" height="1" fill="#262626"/>
<rect x="1" y="17" width="1" height="3" fill="#262626"/>
<rect x="2" y="14" width="1" height="3" fill="#262626"/>
<rect x="3" y="11" width="1" height="3" fill="#262626"/>
<rect x="4" y="8" width="1" height="3" fill="#262626"/>
<rect x="5" y="5" width="1" height="3" fill="#262626"/>
<rect x="6" y="3" width="1" height="2" fill="#262626"/>
<rect x="7" y="2" width="1" height="1" fill="#262626"/>
<rect x="8" y="1" width="2" height="1" fill="#262626"/>
<rect x="10" width="2" height="1" fill="#262626"/>
<rect y="21" width="12" height="1" fill="#EEEEEE"/>
<rect width="85" height="22" transform="translate(12)" fill="#EEEEEE"/>
<rect x="12" width="85" height="1" fill="#262626"/>
<rect x="12" y="5" width="85" height="17" fill="#EEEEEE"/>
<path fill-rule="evenodd" clip-rule="evenodd" d="M99 1H97V21H99H100H101H102H103H104H105H106H107H108V20H107V17H106V14H105V11H104V8H103V5H102V3H101V2H99V1Z" fill="#EEEEEE"/>
<rect x="108" y="20" width="1" height="1" fill="#262626"/>
<rect x="107" y="17" width="1" height="3" fill="#262626"/>
<rect x="106" y="14" width="1" height="3" fill="#262626"/>
<rect x="105" y="11" width="1" height="3" fill="#262626"/>
<rect x="104" y="8" width="1" height="3" fill="#262626"/>
<rect x="103" y="5" width="1" height="3" fill="#262626"/>
<rect x="102" y="3" width="1" height="2" fill="#262626"/>
<rect x="101" y="2" width="1" height="1" fill="#262626"/>
<rect x="99" y="1" width="2" height="1" fill="#262626"/>
<rect x="97" width="2" height="1" fill="#262626"/>
<rect x="97" y="21" width="12" height="1" fill="#EEEEEE"/>
</svg>
