<svg width="80" height="80" viewBox="0 0 80 80" fill="none" xmlns="http://www.w3.org/2000/svg">
<path d="M80 40C80 17.9086 62.0914 0 40 0C17.9086 0 0 17.9086 0 40C0 62.0914 17.9086 80 40 80C62.0914 80 80 62.0914 80 40Z" fill="#2EB335"/>
<path d="M78 40C78 19.0132 60.9868 2 40 2C19.0132 2 2 19.0132 2 40C2 60.9868 19.0132 78 40 78C60.9868 78 78 60.9868 78 40Z" stroke="black" stroke-width="4"/>
<path d="M30 60L50 40L30 20" stroke="black" stroke-width="6" stroke-linecap="round" stroke-linejoin="round"/>
</svg>
