<svg width="80" height="80" viewBox="0 0 80 80" fill="none" xmlns="http://www.w3.org/2000/svg">
<path d="M0 40C0 62.0914 17.9086 80 40 80C62.0914 80 80 62.0914 80 40C80 17.9086 62.0914 0 40 0C17.9086 0 0 17.9086 0 40Z" fill="#2EB335"/>
<path d="M2.5 40C2.5 60.7107 19.2893 77.5 40 77.5C60.7107 77.5 77.5 60.7107 77.5 40C77.5 19.2893 60.7107 2.5 40 2.5C19.2893 2.5 2.5 19.2893 2.5 40Z" stroke="black" stroke-width="5"/>
<path d="M50 20L30 40L50 60" stroke="black" stroke-width="6.66667" stroke-linecap="round" stroke-linejoin="round"/>
</svg>
