<svg width="89" height="23" viewBox="0 0 89 23" fill="none" xmlns="http://www.w3.org/2000/svg">
<g clip-path="url(#clip0_1450_4063)">
<path d="M31.875 18.0149C31.0977 18.0149 30.3936 17.8909 29.7627 17.6431C29.1431 17.384 28.608 17.001 28.1574 16.494C27.7181 15.9871 27.3801 15.3619 27.1436 14.6184C26.907 13.8636 26.7887 12.9905 26.7887 11.9992C26.7887 11.0078 26.907 10.1291 27.1436 9.36309C27.3801 8.58578 27.7181 7.93803 28.1574 7.41982C28.608 6.89035 29.1431 6.49043 29.7627 6.22007C30.3936 5.9497 31.0977 5.81451 31.875 5.81451C32.9339 5.81451 33.8126 6.03982 34.5111 6.49043C35.2095 6.94105 35.7672 7.6226 36.184 8.53509L34.2745 9.54897C34.1055 9.0195 33.8295 8.59705 33.4465 8.28162C33.0635 7.95493 32.5396 7.79158 31.875 7.79158C31.0414 7.79158 30.3767 8.07321 29.881 8.63648C29.3966 9.19974 29.1544 9.98832 29.1544 11.0022V12.861C29.1544 13.8861 29.3966 14.6747 29.881 15.2267C30.3767 15.7674 31.0414 16.0378 31.875 16.0378C32.5396 16.0378 33.0804 15.8576 33.4972 15.4971C33.9253 15.1366 34.2351 14.6916 34.4266 14.1621L36.2347 15.2267C35.8066 16.1054 35.2377 16.7926 34.528 17.2882C33.8183 17.7727 32.9339 18.0149 31.875 18.0149Z" fill="white"/>
<path d="M41.1689 18.0149C40.538 18.0149 39.9691 17.9079 39.4622 17.6938C38.9665 17.4798 38.5384 17.17 38.178 16.7644C37.8287 16.3589 37.5584 15.8745 37.3669 15.3112C37.1753 14.7367 37.0796 14.0945 37.0796 13.3848C37.0796 12.6751 37.1753 12.0386 37.3669 11.4754C37.5584 10.9121 37.8287 10.4333 38.178 10.039C38.5384 9.63347 38.9665 9.32368 39.4622 9.10964C39.9691 8.89559 40.538 8.78857 41.1689 8.78857C41.7998 8.78857 42.3687 8.89559 42.8756 9.10964C43.3825 9.32368 43.8106 9.63347 44.1598 10.039C44.5203 10.4333 44.7963 10.9121 44.9878 11.4754C45.1794 12.0386 45.2751 12.6751 45.2751 13.3848C45.2751 14.0945 45.1794 14.7367 44.9878 15.3112C44.7963 15.8745 44.5203 16.3589 44.1598 16.7644C43.8106 17.17 43.3825 17.4798 42.8756 17.6938C42.3687 17.9079 41.7998 18.0149 41.1689 18.0149ZM41.1689 16.2744C41.7434 16.2744 42.194 16.0998 42.5207 15.7505C42.8474 15.4013 43.0108 14.8887 43.0108 14.2128V12.5737C43.0108 11.9091 42.8474 11.4021 42.5207 11.0529C42.194 10.7037 41.7434 10.5291 41.1689 10.5291C40.6056 10.5291 40.1607 10.7037 39.834 11.0529C39.5073 11.4021 39.3439 11.9091 39.3439 12.5737V14.2128C39.3439 14.8887 39.5073 15.4013 39.834 15.7505C40.1607 16.0998 40.6056 16.2744 41.1689 16.2744Z" fill="white"/>
<path d="M47.928 7.70708C47.4774 7.70708 47.1507 7.60569 46.9479 7.40292C46.7564 7.20014 46.6606 6.94104 46.6606 6.62561V6.28765C46.6606 5.97222 46.7564 5.71312 46.9479 5.51034C47.1507 5.30756 47.4774 5.20618 47.928 5.20618C48.3673 5.20618 48.6884 5.30756 48.8912 5.51034C49.094 5.71312 49.1953 5.97222 49.1953 6.28765V6.62561C49.1953 6.94104 49.094 7.20014 48.8912 7.40292C48.6884 7.60569 48.3673 7.70708 47.928 7.70708ZM46.8465 8.99133H49.0095V17.8121H46.8465V8.99133Z" fill="white"/>
<path d="M51.1725 17.8121V8.99135H53.3354V10.4615H53.4199C53.6002 9.98833 53.8818 9.59404 54.2648 9.27862C54.6591 8.95192 55.1998 8.78857 55.887 8.78857C56.7995 8.78857 57.498 9.08711 57.9824 9.68417C58.4668 10.2812 58.709 11.1318 58.709 12.2358V17.8121H56.546V12.4554C56.546 11.8246 56.4334 11.3514 56.2081 11.036C55.9828 10.7206 55.611 10.5629 55.0928 10.5629C54.8675 10.5629 54.6478 10.5967 54.4338 10.6643C54.231 10.7206 54.0451 10.8107 53.8762 10.9346C53.7184 11.0473 53.5889 11.1937 53.4875 11.374C53.3861 11.5429 53.3354 11.7457 53.3354 11.9823V17.8121H51.1725Z" fill="white"/>
<path d="M63.66 18.0149C62.8151 18.0149 62.1054 17.8741 61.5308 17.5924C60.9563 17.2995 60.4494 16.8996 60.01 16.3927L61.3281 15.1084C61.6547 15.4802 62.0096 15.7731 62.3926 15.9871C62.7869 16.2012 63.2375 16.3082 63.7445 16.3082C64.2627 16.3082 64.6344 16.2181 64.8597 16.0378C65.0963 15.8576 65.2146 15.6097 65.2146 15.2943C65.2146 15.0352 65.1301 14.8324 64.9611 14.686C64.8034 14.5283 64.5274 14.4212 64.1331 14.3649L63.2544 14.2466C62.2969 14.1227 61.5646 13.8523 61.0577 13.4355C60.562 13.0074 60.3142 12.3878 60.3142 11.5767C60.3142 11.1487 60.393 10.7656 60.5507 10.4277C60.7085 10.0785 60.9338 9.78556 61.2267 9.54898C61.5196 9.30115 61.8688 9.11527 62.2743 8.99135C62.6912 8.85617 63.153 8.78857 63.66 8.78857C64.0881 8.78857 64.4654 8.82237 64.7921 8.88996C65.1301 8.94629 65.4343 9.03641 65.7046 9.16033C65.975 9.27298 66.2228 9.41943 66.4481 9.59968C66.6734 9.76866 66.8931 9.96017 67.1072 10.1742L65.8398 11.4416C65.5807 11.1712 65.2709 10.9459 64.9104 10.7656C64.5499 10.5854 64.1556 10.4953 63.7276 10.4953C63.2544 10.4953 62.9108 10.5798 62.6968 10.7487C62.494 10.9177 62.3926 11.1374 62.3926 11.4078C62.3926 11.7007 62.4771 11.926 62.6461 12.0837C62.8263 12.2301 63.1249 12.3372 63.5417 12.4047L64.4373 12.523C66.3411 12.7934 67.293 13.6608 67.293 15.1253C67.293 15.5534 67.2029 15.9477 67.0227 16.3082C66.8537 16.6574 66.6115 16.9616 66.2961 17.2207C65.9806 17.4685 65.5976 17.6656 65.147 17.8121C64.7076 17.9473 64.212 18.0149 63.66 18.0149Z" fill="white"/>
<path d="M74.1367 16.342H74.0523C73.9734 16.5673 73.8664 16.7813 73.7312 16.9841C73.6073 17.1756 73.4439 17.3502 73.2412 17.5079C73.0496 17.6656 72.8131 17.7896 72.5314 17.8797C72.2611 17.9698 71.9456 18.0149 71.5851 18.0149C70.6727 18.0149 69.9742 17.7163 69.4898 17.1193C69.0054 16.5222 68.7632 15.6717 68.7632 14.5677V8.99133H70.9261V14.348C70.9261 14.9563 71.0444 15.4238 71.281 15.7505C71.5176 16.066 71.8949 16.2237 72.4132 16.2237C72.6272 16.2237 72.8356 16.1955 73.0384 16.1392C73.2524 16.0829 73.4383 15.9984 73.596 15.8857C73.7537 15.7618 73.8833 15.6153 73.9847 15.4464C74.0861 15.2661 74.1367 15.0577 74.1367 14.8211V8.99133H76.2997V17.8121H74.1367V16.342Z" fill="white"/>
<path d="M80.6256 17.8121C79.8821 17.8121 79.3357 17.6262 78.9865 17.2544C78.6373 16.8827 78.4626 16.3588 78.4626 15.6829V5.30756H80.6256V16.0885H81.7915V17.8121H80.6256Z" fill="white"/>
<path d="M85.7624 17.8121C85.0189 17.8121 84.45 17.6206 84.0557 17.2376C83.6727 16.8433 83.4812 16.2857 83.4812 15.5647V10.715H82.1801V8.99136H82.856C83.1827 8.99136 83.4023 8.91814 83.515 8.77169C83.6389 8.61397 83.7009 8.38304 83.7009 8.07887V6.57495H85.6441V8.99136H87.4522V10.715H85.6441V16.0885H87.317V17.8121H85.7624Z" fill="white"/>
<path d="M7.43174 0.170288H22.8254V15.564C22.8254 17.5361 22.042 19.4275 20.6475 20.822C19.2529 22.2165 17.3616 23 15.3894 23H-0.00427246V7.6063C-0.00427246 5.63415 0.779162 3.74277 2.17369 2.34825C3.56821 0.953723 5.45959 0.170288 7.43174 0.170288Z" fill="url(#paint0_linear_1450_4063)"/>
<path d="M18.0326 9.15412L16.5063 9.85349L15.4348 10.3446L15.387 10.3661L13.9138 11.0315C13.9138 11.0258 13.9114 11.0201 13.9095 11.0143C13.8225 10.6518 13.6548 10.3136 13.4189 10.025L13.2827 9.72737L14.7526 9.0538L15.8399 8.55555L17.3795 7.84998C17.4649 7.9831 17.5445 8.11924 17.6184 8.25842L18.0206 9.13597L18.0326 9.15412Z" fill="white"/>
<path d="M18.2815 13.1864C18.1683 13.6678 18.0042 14.1357 17.7918 14.5823L13.0181 13.7673L13.063 13.5041C13.4112 13.2212 13.6755 12.8486 13.8273 12.4264L18.2815 13.1864Z" fill="white"/>
<path d="M9.67703 13.9455L7.74852 15.3112L6.36985 16.2877C6.04068 15.9281 5.75008 15.535 5.50281 15.1149L6.87431 14.1432L7.83785 13.4606L8.83435 12.755L9.67703 13.9455Z" fill="white"/>
<path d="M9.86094 7.9469L9.26476 9.27779L8.39151 8.88655L7.28561 8.39117L5.72876 7.69323C6.01252 7.27239 6.34156 6.88392 6.70997 6.53479L8.4087 7.29578L9.70759 7.87858L9.86094 7.9469Z" fill="white"/>
<path d="M16.6291 12.9041C16.396 13.8095 15.9271 14.637 15.2702 15.3023C14.6133 15.9677 13.7919 16.4471 12.8895 16.6919C11.9871 16.9366 11.036 16.9379 10.133 16.6957C9.22995 16.4534 8.40722 15.9762 7.74852 15.3127C7.40484 14.9655 7.11067 14.5726 6.87431 14.1451L5.50281 15.1168C6.20669 16.3163 7.2538 17.2775 8.50909 17.8763C9.76438 18.4751 11.1703 18.6841 12.5455 18.4764C13.9207 18.2687 15.2021 17.6537 16.2245 16.7108C17.2469 15.7679 17.9634 14.5403 18.2815 13.1864L16.6291 12.9041Z" fill="white"/>
<path d="M8.40865 7.29581C9.07782 6.81352 9.85043 6.49425 10.6649 6.36344C11.4793 6.23263 12.313 6.29391 13.0996 6.54239C13.8861 6.79087 14.6037 7.21967 15.1952 7.79462C15.7867 8.36957 16.2356 9.07475 16.5063 9.85394L18.0326 9.15458C18.0297 9.14741 18.0273 9.14024 18.0244 9.13356L17.6222 8.25601C17.5467 8.11715 17.4671 7.98101 17.3834 7.84757C16.7623 6.87258 15.9084 6.06743 14.8987 5.50468C13.8889 4.94193 12.755 4.63927 11.5991 4.62396C10.4432 4.60866 9.30172 4.88119 8.27741 5.417C7.25311 5.95281 6.37821 6.73506 5.73157 7.69326L7.28842 8.3912C7.60539 7.97249 7.98294 7.60332 8.40865 7.29581Z" fill="white"/>
<path d="M6.3111 10.5739C6.36948 10.2737 6.45355 9.97919 6.56238 9.69346L5.03371 9.00842C4.43203 10.5242 4.37964 12.2027 4.88562 13.753L6.33594 12.726C6.17999 12.0179 6.17153 11.2853 6.3111 10.5739Z" fill="white"/>
<path d="M16.4298 9.64941L15.3774 10.1782L15.3316 10.2016L13.8879 10.9263" fill="white"/>
<path d="M8.76453 12.7923L7.83253 13.4525C7.5966 12.9906 7.4507 12.488 7.40259 11.9716L7.92233 11.6038L8.76453 12.7923Z" fill="white"/>
<path d="M9.46532 9.39587L8.86914 10.7268L7.63379 10.1717C7.8018 9.7082 8.05234 9.27899 8.37328 8.90479L9.46532 9.39587Z" fill="white"/>
<path d="M15.4692 12.7063C15.2441 13.5028 14.7843 14.213 14.1498 14.7444C13.5152 15.2758 12.7353 15.6037 11.9116 15.6853C11.088 15.767 10.2588 15.5987 9.53227 15.2023C8.80569 14.8059 8.21538 14.1998 7.83827 13.463C7.83606 13.4599 7.83429 13.4565 7.83302 13.453C7.46366 12.7266 7.31794 11.9071 7.41428 11.098C7.51062 10.2888 7.84469 9.5264 8.37426 8.90709L8.39194 8.88703C8.87211 8.33366 9.49111 7.91829 10.1852 7.68369C10.8793 7.44909 11.6233 7.40374 12.3408 7.55231C13.0582 7.70087 13.7231 8.03799 14.2669 8.52894C14.8107 9.01989 15.2139 9.64692 15.4348 10.3455L15.387 10.3665L13.9138 11.0315C13.9138 11.0257 13.9114 11.02 13.9095 11.0143C13.7721 10.4365 13.4314 9.92738 12.9497 9.58007C12.4679 9.23276 11.8772 9.07042 11.2856 9.12272C10.694 9.17501 10.141 9.43846 9.72766 9.8649C9.31429 10.2913 9.06819 10.8523 9.03434 11.4452C9.00049 12.0382 9.18114 12.6235 9.54328 13.0942C9.90542 13.5649 10.4249 13.8896 11.0067 14.0089C11.5885 14.1282 12.1938 14.0341 12.7119 13.7439C13.2301 13.4537 13.6265 12.9867 13.8287 12.4283L15.4692 12.7063Z" fill="white"/>
</g>
<defs>
<linearGradient id="paint0_linear_1450_4063" x1="0.360697" y1="0.739717" x2="33.7774" y2="33.5378" gradientUnits="userSpaceOnUse">
<stop stop-color="#3B916F"/>
<stop offset="1" stop-color="#096AA5"/>
</linearGradient>
<clipPath id="clip0_1450_4063">
<rect width="88.5043" height="22.8297" fill="white" transform="translate(-0.00427246 0.170288)"/>
</clipPath>
</defs>
</svg>
