<svg width="45" height="85" viewBox="0 0 45 85" fill="none" xmlns="http://www.w3.org/2000/svg">
<rect x="22" y="57" width="7" height="7" fill="black"/>
<rect x="22" y="57" width="7" height="7" fill="black"/>
<rect x="22" y="57" width="7" height="7" fill="black"/>
<rect x="15" y="57" width="7" height="7" fill="black"/>
<rect x="15" y="57" width="7" height="7" fill="black"/>
<rect x="15" y="57" width="7" height="7" fill="black"/>
<rect x="22" y="64" width="7" height="7" fill="black"/>
<rect x="22" y="64" width="7" height="7" fill="black"/>
<rect x="22" y="64" width="7" height="7" fill="black"/>
<rect x="15" y="64" width="7" height="7" fill="black"/>
<rect x="15" y="64" width="7" height="7" fill="black"/>
<rect x="15" y="64" width="7" height="7" fill="black"/>
<rect x="15" y="71" width="7" height="7" fill="black"/>
<rect x="15" y="71" width="7" height="7" fill="black"/>
<rect x="15" y="71" width="7" height="7" fill="black"/>
<rect x="8" y="64" width="7" height="7" fill="black"/>
<rect x="8" y="64" width="7" height="7" fill="black"/>
<rect x="8" y="64" width="7" height="7" fill="black"/>
<rect x="8" y="71" width="7" height="7" fill="black"/>
<rect x="8" y="71" width="7" height="7" fill="black"/>
<rect x="8" y="71" width="7" height="7" fill="black"/>
<rect x="8" y="78" width="7" height="7" fill="black"/>
<rect x="8" y="78" width="7" height="7" fill="black"/>
<rect x="8" y="78" width="7" height="7" fill="black"/>
<rect x="22" y="71" width="7" height="7" fill="black"/>
<rect x="22" y="71" width="7" height="7" fill="black"/>
<rect x="22" y="71" width="7" height="7" fill="black"/>
<rect x="22" y="71" width="7" height="7" fill="black"/>
<rect x="22" y="71" width="7" height="7" fill="black"/>
<rect x="22" y="71" width="7" height="7" fill="black"/>
<rect x="22" y="78" width="7" height="7" fill="black"/>
<rect x="22" y="78" width="7" height="7" fill="black"/>
<rect x="22" y="78" width="7" height="7" fill="black"/>
<rect x="8" y="57" width="7" height="7" fill="black"/>
<rect x="8" y="57" width="7" height="7" fill="black"/>
<rect x="8" y="57" width="7" height="7" fill="black"/>
<rect x="1" y="57" width="7" height="7" fill="black"/>
<rect x="1" y="57" width="7" height="7" fill="black"/>
<rect x="1" y="57" width="7" height="7" fill="black"/>
<rect x="44.265" y="41.3867" width="7" height="7" transform="rotate(118.154 44.265 41.3867)" fill="black"/>
<rect x="44.265" y="41.3867" width="7" height="7" transform="rotate(118.154 44.265 41.3867)" fill="black"/>
<rect x="44.265" y="41.3867" width="7" height="7" transform="rotate(118.154 44.265 41.3867)" fill="#5A5A5A"/>
<g opacity="0.6">
<rect x="27.9502" width="3.48143" height="3.48143" transform="rotate(27.7276 27.9502 0)" fill="black"/>
<rect x="27.9502" width="3.48143" height="3.48143" transform="rotate(27.7276 27.9502 0)" fill="black"/>
<rect x="27.9502" width="3.48143" height="3.48143" transform="rotate(27.7276 27.9502 0)" fill="#5A5A5A"/>
</g>
<rect y="12.7935" width="7" height="7" transform="rotate(-30 0 12.7935)" fill="black"/>
<rect y="12.7935" width="7" height="7" transform="rotate(-30 0 12.7935)" fill="black"/>
<rect y="12.7935" width="7" height="7" transform="rotate(-30 0 12.7935)" fill="#5A5A5A"/>
<rect x="37.082" y="19.2935" width="7" height="7" transform="rotate(35.672 37.082 19.2935)" fill="black"/>
<rect x="37.082" y="19.2935" width="7" height="7" transform="rotate(35.672 37.082 19.2935)" fill="black"/>
<rect x="37.082" y="19.2935" width="7" height="7" transform="rotate(35.672 37.082 19.2935)" fill="#5A5A5A"/>
<rect x="20.0066" y="58" width="7" height="7" transform="rotate(45.6614 20.0066 58)" fill="black"/>
<rect x="20.0066" y="58" width="7" height="7" transform="rotate(45.6614 20.0066 58)" fill="black"/>
<rect x="20.0066" y="58" width="7" height="7" transform="rotate(45.6614 20.0066 58)" fill="#5A5A5A"/>
</svg>
